<mxfile host="app.diagrams.net" agent="Mozilla/5.0 (Windows NT 10.0; Win64; x64) AppleWebKit/537.36 (KHTML, like Gecko) Chrome/134.0.0.0 Safari/537.36" version="26.2.3">
  <diagram id="C5RBs43oDa-KdzZeNtuy" name="Page-1">
    <mxGraphModel dx="548" dy="974" grid="1" gridSize="10" guides="1" tooltips="1" connect="1" arrows="1" fold="1" page="1" pageScale="1" pageWidth="827" pageHeight="1169" math="0" shadow="0">
      <root>
        <mxCell id="WIyWlLk6GJQsqaUBKTNV-0" />
        <mxCell id="WIyWlLk6GJQsqaUBKTNV-1" parent="WIyWlLk6GJQsqaUBKTNV-0" />
        <mxCell id="1Dm9Xr86s3sIBNIbfE32-0" value="FIM" style="strokeWidth=2;html=1;shape=mxgraph.flowchart.start_1;whiteSpace=wrap;fillColor=#d5e8d4;strokeColor=#82b366;rounded=1;" vertex="1" parent="WIyWlLk6GJQsqaUBKTNV-1">
          <mxGeometry x="214" y="1480" width="100" height="60" as="geometry" />
        </mxCell>
        <mxCell id="1Dm9Xr86s3sIBNIbfE32-22" style="edgeStyle=none;curved=1;rounded=1;orthogonalLoop=1;jettySize=auto;html=1;exitX=0.5;exitY=1;exitDx=0;exitDy=0;exitPerimeter=0;entryX=0.5;entryY=0;entryDx=0;entryDy=0;fontSize=12;startSize=8;endSize=8;" edge="1" parent="WIyWlLk6GJQsqaUBKTNV-1" source="1Dm9Xr86s3sIBNIbfE32-1" target="1Dm9Xr86s3sIBNIbfE32-2">
          <mxGeometry relative="1" as="geometry" />
        </mxCell>
        <mxCell id="1Dm9Xr86s3sIBNIbfE32-1" value="INICIO" style="strokeWidth=2;html=1;shape=mxgraph.flowchart.start_1;whiteSpace=wrap;fillColor=#d5e8d4;strokeColor=#82b366;rounded=1;" vertex="1" parent="WIyWlLk6GJQsqaUBKTNV-1">
          <mxGeometry x="214" y="120" width="100" height="60" as="geometry" />
        </mxCell>
        <mxCell id="1Dm9Xr86s3sIBNIbfE32-21" style="edgeStyle=none;curved=1;rounded=1;orthogonalLoop=1;jettySize=auto;html=1;exitX=0.5;exitY=1;exitDx=0;exitDy=0;entryX=0.5;entryY=0;entryDx=0;entryDy=0;fontSize=12;startSize=8;endSize=8;" edge="1" parent="WIyWlLk6GJQsqaUBKTNV-1" source="1Dm9Xr86s3sIBNIbfE32-2" target="1Dm9Xr86s3sIBNIbfE32-4">
          <mxGeometry relative="1" as="geometry" />
        </mxCell>
        <mxCell id="1Dm9Xr86s3sIBNIbfE32-2" value="TABELA[4][3]&lt;div&gt;SOMA-TOTAL = 0&lt;/div&gt;&lt;div&gt;MAIOR-PONTUACAO = 0&lt;/div&gt;" style="rounded=1;whiteSpace=wrap;html=1;fillColor=#f5f5f5;fontColor=#333333;strokeColor=#666666;" vertex="1" parent="WIyWlLk6GJQsqaUBKTNV-1">
          <mxGeometry x="186" y="210" width="156" height="50" as="geometry" />
        </mxCell>
        <mxCell id="1Dm9Xr86s3sIBNIbfE32-6" value="" style="edgeStyle=orthogonalEdgeStyle;rounded=1;orthogonalLoop=1;jettySize=auto;html=1;fontSize=12;startSize=8;endSize=8;" edge="1" parent="WIyWlLk6GJQsqaUBKTNV-1" source="1Dm9Xr86s3sIBNIbfE32-4" target="1Dm9Xr86s3sIBNIbfE32-5">
          <mxGeometry relative="1" as="geometry" />
        </mxCell>
        <mxCell id="1Dm9Xr86s3sIBNIbfE32-4" value="LINHA=0; LINHA &amp;lt; 4; LINHA++" style="shape=hexagon;perimeter=hexagonPerimeter2;whiteSpace=wrap;html=1;fixedSize=1;fillColor=#fff2cc;strokeColor=#d6b656;rounded=1;" vertex="1" parent="WIyWlLk6GJQsqaUBKTNV-1">
          <mxGeometry x="186" y="300" width="156" height="80" as="geometry" />
        </mxCell>
        <mxCell id="1Dm9Xr86s3sIBNIbfE32-9" value="" style="edgeStyle=none;curved=1;rounded=1;orthogonalLoop=1;jettySize=auto;html=1;fontSize=12;startSize=8;endSize=8;" edge="1" parent="WIyWlLk6GJQsqaUBKTNV-1" source="1Dm9Xr86s3sIBNIbfE32-5" target="1Dm9Xr86s3sIBNIbfE32-7">
          <mxGeometry relative="1" as="geometry" />
        </mxCell>
        <mxCell id="1Dm9Xr86s3sIBNIbfE32-17" style="edgeStyle=orthogonalEdgeStyle;rounded=1;orthogonalLoop=1;jettySize=auto;html=1;exitX=1;exitY=0.5;exitDx=0;exitDy=0;entryX=1;entryY=0.5;entryDx=0;entryDy=0;fontSize=12;startSize=8;endSize=8;" edge="1" parent="WIyWlLk6GJQsqaUBKTNV-1" source="1Dm9Xr86s3sIBNIbfE32-5" target="1Dm9Xr86s3sIBNIbfE32-4">
          <mxGeometry relative="1" as="geometry" />
        </mxCell>
        <mxCell id="1Dm9Xr86s3sIBNIbfE32-5" value="COLUNA=0; COLUNA &amp;lt; 3; COLUNA++" style="shape=hexagon;perimeter=hexagonPerimeter2;whiteSpace=wrap;html=1;fixedSize=1;fillColor=#fff2cc;strokeColor=#d6b656;rounded=1;" vertex="1" parent="WIyWlLk6GJQsqaUBKTNV-1">
          <mxGeometry x="181" y="410" width="166" height="80" as="geometry" />
        </mxCell>
        <mxCell id="1Dm9Xr86s3sIBNIbfE32-16" style="edgeStyle=orthogonalEdgeStyle;rounded=1;orthogonalLoop=1;jettySize=auto;html=1;exitX=0;exitY=0.75;exitDx=0;exitDy=0;entryX=0;entryY=0.5;entryDx=0;entryDy=0;fontSize=12;startSize=8;endSize=8;" edge="1" parent="WIyWlLk6GJQsqaUBKTNV-1" source="1Dm9Xr86s3sIBNIbfE32-7" target="1Dm9Xr86s3sIBNIbfE32-5">
          <mxGeometry relative="1" as="geometry" />
        </mxCell>
        <mxCell id="1Dm9Xr86s3sIBNIbfE32-7" value="&lt;div&gt;&lt;br&gt;&lt;/div&gt;TABELA[LINHA][COLUNA]" style="html=1;strokeWidth=2;shape=manualInput;whiteSpace=wrap;rounded=1;size=26;arcSize=11;fillColor=#dae8fc;strokeColor=#6c8ebf;" vertex="1" parent="WIyWlLk6GJQsqaUBKTNV-1">
          <mxGeometry x="164.5" y="520" width="199" height="55.5" as="geometry" />
        </mxCell>
        <mxCell id="1Dm9Xr86s3sIBNIbfE32-29" style="edgeStyle=none;curved=1;rounded=1;orthogonalLoop=1;jettySize=auto;html=1;exitX=0.5;exitY=1;exitDx=0;exitDy=0;exitPerimeter=0;entryX=0.5;entryY=0;entryDx=0;entryDy=0;fontSize=12;startSize=8;endSize=8;" edge="1" parent="WIyWlLk6GJQsqaUBKTNV-1" source="1Dm9Xr86s3sIBNIbfE32-18" target="1Dm9Xr86s3sIBNIbfE32-25">
          <mxGeometry relative="1" as="geometry" />
        </mxCell>
        <mxCell id="1Dm9Xr86s3sIBNIbfE32-18" value="" style="verticalLabelPosition=bottom;verticalAlign=top;html=1;shape=mxgraph.flowchart.on-page_reference;rounded=1;fillColor=#f5f5f5;gradientColor=#b3b3b3;strokeColor=#666666;" vertex="1" parent="WIyWlLk6GJQsqaUBKTNV-1">
          <mxGeometry x="244" y="620" width="40" height="40" as="geometry" />
        </mxCell>
        <mxCell id="1Dm9Xr86s3sIBNIbfE32-19" style="edgeStyle=orthogonalEdgeStyle;rounded=1;orthogonalLoop=1;jettySize=auto;html=1;exitX=0;exitY=0.5;exitDx=0;exitDy=0;entryX=0;entryY=0.5;entryDx=0;entryDy=0;entryPerimeter=0;fontSize=12;startSize=8;endSize=8;" edge="1" parent="WIyWlLk6GJQsqaUBKTNV-1" source="1Dm9Xr86s3sIBNIbfE32-4" target="1Dm9Xr86s3sIBNIbfE32-18">
          <mxGeometry relative="1" as="geometry">
            <Array as="points">
              <mxPoint x="110" y="340" />
              <mxPoint x="110" y="640" />
            </Array>
          </mxGeometry>
        </mxCell>
        <mxCell id="1Dm9Xr86s3sIBNIbfE32-24" value="" style="edgeStyle=orthogonalEdgeStyle;rounded=1;orthogonalLoop=1;jettySize=auto;html=1;fontSize=12;startSize=8;endSize=8;" edge="1" parent="WIyWlLk6GJQsqaUBKTNV-1" source="1Dm9Xr86s3sIBNIbfE32-54" target="1Dm9Xr86s3sIBNIbfE32-27">
          <mxGeometry relative="1" as="geometry" />
        </mxCell>
        <mxCell id="1Dm9Xr86s3sIBNIbfE32-25" value="LINHA=0; LINHA &amp;lt; 4; LINHA++" style="shape=hexagon;perimeter=hexagonPerimeter2;whiteSpace=wrap;html=1;fixedSize=1;fillColor=#fff2cc;strokeColor=#d6b656;rounded=1;" vertex="1" parent="WIyWlLk6GJQsqaUBKTNV-1">
          <mxGeometry x="186" y="700" width="156" height="80" as="geometry" />
        </mxCell>
        <mxCell id="1Dm9Xr86s3sIBNIbfE32-26" style="edgeStyle=orthogonalEdgeStyle;rounded=1;orthogonalLoop=1;jettySize=auto;html=1;exitX=1;exitY=0.5;exitDx=0;exitDy=0;entryX=1;entryY=0.5;entryDx=0;entryDy=0;fontSize=12;startSize=8;endSize=8;" edge="1" parent="WIyWlLk6GJQsqaUBKTNV-1" source="1Dm9Xr86s3sIBNIbfE32-27" target="1Dm9Xr86s3sIBNIbfE32-25">
          <mxGeometry relative="1" as="geometry" />
        </mxCell>
        <mxCell id="1Dm9Xr86s3sIBNIbfE32-53" style="edgeStyle=none;curved=1;rounded=1;orthogonalLoop=1;jettySize=auto;html=1;exitX=0.5;exitY=1;exitDx=0;exitDy=0;entryX=0.5;entryY=0;entryDx=0;entryDy=0;fontSize=12;startSize=8;endSize=8;" edge="1" parent="WIyWlLk6GJQsqaUBKTNV-1" source="1Dm9Xr86s3sIBNIbfE32-27" target="1Dm9Xr86s3sIBNIbfE32-30">
          <mxGeometry relative="1" as="geometry" />
        </mxCell>
        <mxCell id="1Dm9Xr86s3sIBNIbfE32-27" value="COLUNA=0; COLUNA &amp;lt; 3; COLUNA++" style="shape=hexagon;perimeter=hexagonPerimeter2;whiteSpace=wrap;html=1;fixedSize=1;fillColor=#fff2cc;strokeColor=#d6b656;rounded=1;" vertex="1" parent="WIyWlLk6GJQsqaUBKTNV-1">
          <mxGeometry x="181" y="860" width="166" height="80" as="geometry" />
        </mxCell>
        <mxCell id="1Dm9Xr86s3sIBNIbfE32-30" value="SOMA-TOTAL = SOMA-TOTAL + TABELA[LINHA][COLUNA]" style="rounded=1;whiteSpace=wrap;html=1;absoluteArcSize=1;arcSize=14;strokeWidth=2;fillColor=#f5f5f5;strokeColor=#666666;fontColor=#333333;" vertex="1" parent="WIyWlLk6GJQsqaUBKTNV-1">
          <mxGeometry x="84" y="970" width="360" height="50" as="geometry" />
        </mxCell>
        <mxCell id="1Dm9Xr86s3sIBNIbfE32-50" style="edgeStyle=orthogonalEdgeStyle;rounded=1;orthogonalLoop=1;jettySize=auto;html=1;exitX=0;exitY=0.5;exitDx=0;exitDy=0;entryX=0;entryY=0.5;entryDx=0;entryDy=0;fontSize=12;startSize=8;endSize=8;" edge="1" parent="WIyWlLk6GJQsqaUBKTNV-1" source="1Dm9Xr86s3sIBNIbfE32-32" target="1Dm9Xr86s3sIBNIbfE32-27">
          <mxGeometry relative="1" as="geometry">
            <Array as="points">
              <mxPoint x="60" y="1225" />
              <mxPoint x="60" y="900" />
            </Array>
          </mxGeometry>
        </mxCell>
        <mxCell id="1Dm9Xr86s3sIBNIbfE32-32" value="MAIOR-PONTUACAO = SOMA-TOTAL" style="rounded=1;whiteSpace=wrap;html=1;absoluteArcSize=1;arcSize=14;strokeWidth=2;fillColor=#f5f5f5;strokeColor=#666666;fontColor=#333333;" vertex="1" parent="WIyWlLk6GJQsqaUBKTNV-1">
          <mxGeometry x="142" y="1200" width="244" height="50" as="geometry" />
        </mxCell>
        <mxCell id="1Dm9Xr86s3sIBNIbfE32-35" style="edgeStyle=none;curved=1;rounded=1;orthogonalLoop=1;jettySize=auto;html=1;exitX=0.5;exitY=1;exitDx=0;exitDy=0;exitPerimeter=0;entryX=0.5;entryY=0;entryDx=0;entryDy=0;fontSize=12;startSize=8;endSize=8;" edge="1" parent="WIyWlLk6GJQsqaUBKTNV-1" source="1Dm9Xr86s3sIBNIbfE32-33" target="1Dm9Xr86s3sIBNIbfE32-32">
          <mxGeometry relative="1" as="geometry" />
        </mxCell>
        <mxCell id="1Dm9Xr86s3sIBNIbfE32-36" value="SIM" style="edgeLabel;html=1;align=center;verticalAlign=middle;resizable=0;points=[];fontSize=12;rounded=1;" vertex="1" connectable="0" parent="1Dm9Xr86s3sIBNIbfE32-35">
          <mxGeometry x="-0.35" y="-2" relative="1" as="geometry">
            <mxPoint as="offset" />
          </mxGeometry>
        </mxCell>
        <mxCell id="1Dm9Xr86s3sIBNIbfE32-39" style="edgeStyle=orthogonalEdgeStyle;rounded=1;orthogonalLoop=1;jettySize=auto;html=1;exitX=0;exitY=0.5;exitDx=0;exitDy=0;exitPerimeter=0;entryX=0;entryY=0.5;entryDx=0;entryDy=0;fontSize=12;startSize=8;endSize=8;" edge="1" parent="WIyWlLk6GJQsqaUBKTNV-1" source="1Dm9Xr86s3sIBNIbfE32-51" target="1Dm9Xr86s3sIBNIbfE32-27">
          <mxGeometry relative="1" as="geometry">
            <Array as="points">
              <mxPoint x="60" y="1100" />
              <mxPoint x="60" y="900" />
            </Array>
          </mxGeometry>
        </mxCell>
        <mxCell id="1Dm9Xr86s3sIBNIbfE32-33" value="MAIOR-PONTUAÇÃO &amp;lt; SOMA-TOTAL" style="strokeWidth=2;html=1;shape=mxgraph.flowchart.decision;whiteSpace=wrap;rounded=1;fillColor=#ffe6cc;strokeColor=#d79b00;" vertex="1" parent="WIyWlLk6GJQsqaUBKTNV-1">
          <mxGeometry x="206" y="1040" width="116" height="120" as="geometry" />
        </mxCell>
        <mxCell id="1Dm9Xr86s3sIBNIbfE32-34" style="edgeStyle=none;curved=1;rounded=1;orthogonalLoop=1;jettySize=auto;html=1;exitX=0.5;exitY=1;exitDx=0;exitDy=0;entryX=0.5;entryY=0;entryDx=0;entryDy=0;entryPerimeter=0;fontSize=12;startSize=8;endSize=8;" edge="1" parent="WIyWlLk6GJQsqaUBKTNV-1" source="1Dm9Xr86s3sIBNIbfE32-30" target="1Dm9Xr86s3sIBNIbfE32-33">
          <mxGeometry relative="1" as="geometry" />
        </mxCell>
        <mxCell id="1Dm9Xr86s3sIBNIbfE32-40" value="" style="verticalLabelPosition=bottom;verticalAlign=top;html=1;shape=mxgraph.flowchart.on-page_reference;rounded=1;fillColor=#f5f5f5;gradientColor=#b3b3b3;strokeColor=#666666;" vertex="1" parent="WIyWlLk6GJQsqaUBKTNV-1">
          <mxGeometry x="244" y="1310" width="40" height="40" as="geometry" />
        </mxCell>
        <mxCell id="1Dm9Xr86s3sIBNIbfE32-41" style="edgeStyle=orthogonalEdgeStyle;rounded=1;orthogonalLoop=1;jettySize=auto;html=1;exitX=0;exitY=0.5;exitDx=0;exitDy=0;entryX=0;entryY=0.5;entryDx=0;entryDy=0;entryPerimeter=0;fontSize=12;startSize=8;endSize=8;" edge="1" parent="WIyWlLk6GJQsqaUBKTNV-1" source="1Dm9Xr86s3sIBNIbfE32-25" target="1Dm9Xr86s3sIBNIbfE32-40">
          <mxGeometry relative="1" as="geometry">
            <Array as="points">
              <mxPoint x="40" y="740" />
              <mxPoint x="40" y="1330" />
            </Array>
          </mxGeometry>
        </mxCell>
        <mxCell id="1Dm9Xr86s3sIBNIbfE32-44" style="edgeStyle=none;curved=1;rounded=1;orthogonalLoop=1;jettySize=auto;html=1;exitX=0.5;exitY=1;exitDx=0;exitDy=0;exitPerimeter=0;fontSize=12;startSize=8;endSize=8;" edge="1" parent="WIyWlLk6GJQsqaUBKTNV-1" source="1Dm9Xr86s3sIBNIbfE32-42" target="1Dm9Xr86s3sIBNIbfE32-0">
          <mxGeometry relative="1" as="geometry" />
        </mxCell>
        <mxCell id="1Dm9Xr86s3sIBNIbfE32-42" value="MAIOR-PONTUAÇÃO" style="strokeWidth=2;html=1;shape=mxgraph.flowchart.display;whiteSpace=wrap;rounded=1;fillColor=#e1d5e7;strokeColor=#9673a6;" vertex="1" parent="WIyWlLk6GJQsqaUBKTNV-1">
          <mxGeometry x="214" y="1380" width="100" height="60" as="geometry" />
        </mxCell>
        <mxCell id="1Dm9Xr86s3sIBNIbfE32-43" style="edgeStyle=none;curved=1;rounded=1;orthogonalLoop=1;jettySize=auto;html=1;exitX=0.5;exitY=1;exitDx=0;exitDy=0;exitPerimeter=0;entryX=0.5;entryY=0;entryDx=0;entryDy=0;entryPerimeter=0;fontSize=12;startSize=8;endSize=8;" edge="1" parent="WIyWlLk6GJQsqaUBKTNV-1" source="1Dm9Xr86s3sIBNIbfE32-40" target="1Dm9Xr86s3sIBNIbfE32-42">
          <mxGeometry relative="1" as="geometry" />
        </mxCell>
        <mxCell id="1Dm9Xr86s3sIBNIbfE32-52" value="" style="edgeStyle=orthogonalEdgeStyle;rounded=1;orthogonalLoop=1;jettySize=auto;html=1;exitX=0;exitY=0.5;exitDx=0;exitDy=0;exitPerimeter=0;entryX=0;entryY=0.5;entryDx=0;entryDy=0;fontSize=12;startSize=8;endSize=8;" edge="1" parent="WIyWlLk6GJQsqaUBKTNV-1" source="1Dm9Xr86s3sIBNIbfE32-33" target="1Dm9Xr86s3sIBNIbfE32-51">
          <mxGeometry relative="1" as="geometry">
            <mxPoint x="206" y="1100" as="sourcePoint" />
            <mxPoint x="181" y="850" as="targetPoint" />
            <Array as="points">
              <mxPoint x="60" y="1100" />
            </Array>
          </mxGeometry>
        </mxCell>
        <mxCell id="1Dm9Xr86s3sIBNIbfE32-51" value="" style="verticalLabelPosition=bottom;verticalAlign=top;html=1;shape=mxgraph.flowchart.on-page_reference;rounded=1;fillColor=#f5f5f5;gradientColor=#b3b3b3;strokeColor=#666666;" vertex="1" parent="WIyWlLk6GJQsqaUBKTNV-1">
          <mxGeometry x="44" y="1080" width="40" height="40" as="geometry" />
        </mxCell>
        <mxCell id="1Dm9Xr86s3sIBNIbfE32-55" value="" style="edgeStyle=orthogonalEdgeStyle;rounded=1;orthogonalLoop=1;jettySize=auto;html=1;fontSize=12;startSize=8;endSize=8;" edge="1" parent="WIyWlLk6GJQsqaUBKTNV-1" source="1Dm9Xr86s3sIBNIbfE32-25" target="1Dm9Xr86s3sIBNIbfE32-54">
          <mxGeometry relative="1" as="geometry">
            <mxPoint x="264" y="780" as="sourcePoint" />
            <mxPoint x="264" y="860" as="targetPoint" />
          </mxGeometry>
        </mxCell>
        <mxCell id="1Dm9Xr86s3sIBNIbfE32-54" value="SOMA-TOTAL = 0" style="rounded=1;whiteSpace=wrap;html=1;absoluteArcSize=1;arcSize=14;strokeWidth=2;fillColor=#f5f5f5;strokeColor=#666666;fontColor=#333333;" vertex="1" parent="WIyWlLk6GJQsqaUBKTNV-1">
          <mxGeometry x="209" y="800" width="110" height="50" as="geometry" />
        </mxCell>
      </root>
    </mxGraphModel>
  </diagram>
</mxfile>
